first trial
nRows=16
nColumns=38

# SIMM Motion File Header:
name Sujet_03_velo_100.mvnx
datacolumns 38
datarows 16
otherdata 1
range 0.0000 0.2500
endheader
time pelvis_tilt  pelvis_list  pelvis_rotation  pelvis_tx  pelvis_ty  pelvis_tz  hip_flexion_r  hip_adduction_r  hip_rotation_r  knee_angle_r  ankle_angle_r  subtalar_angle_r  mtp_angle_r  hip_flexion_l  hip_adduction_l  hip_rotation_l  knee_angle_l  ankle_angle_l  subtalar_angle_l  mtp_angle_l  lumbar_extension  lumbar_bending  lumbar_rotation  arm_flex_r  arm_add_r  arm_rot_r  elbow_flex_r  pro_sup_r  wrist_flex_r  wrist_dev_r  arm_flex_l  arm_add_l  arm_rot_l  elbow_flex_l  pro_sup_l  wrist_flex_l  wrist_dev_l
0.0000	-23.6314	-2.1438	-88.2989	0.0000	1.2500	-0.0000	64.7687	2.3936	-4.5567	51.4168	-1.8787	1.1676	0.0000	77.0566	-10.3701	-1.4029	100.8809	4.3133	0.8701	0.0000	-12.4134	-0.5842	0.7132	68.4109	8.1595	14.0311	6.9026	55.6565	-24.2388	-8.3446	74.8112	0.9094	12.9278	5.6169	63.4903	-29.9945	-15.7521	
0.0170	-23.2095	-1.5784	-87.6485	0.0000	1.2500	-0.0000	61.2942	2.1206	-4.4935	48.7134	-3.9250	1.0193	0.0000	79.3327	-10.4547	-1.4315	103.2691	5.3236	-0.7968	-0.0000	-12.5941	-0.7320	0.5376	68.3628	7.9968	13.9433	6.7668	55.4999	-23.9979	-8.2563	74.9776	0.9548	13.5996	5.7022	62.9594	-30.0994	-15.7386	
0.0330	-22.7816	-1.0200	-87.0047	0.0000	1.2500	-0.0000	57.8214	1.8464	-4.4847	46.0108	-5.9894	0.9337	0.0000	81.6042	-10.5488	-1.4813	105.6751	6.3384	-2.4518	0.0000	-12.7763	-0.8785	0.3622	68.3142	7.8345	13.8553	6.6298	55.3421	-23.7568	-8.1680	75.1427	1.0003	14.2717	5.7907	62.4284	-30.2042	-15.7251	
0.0500	-22.4396	-0.5570	-86.4713	0.0000	1.2500	-0.0000	54.9265	1.6081	-4.5995	44.3637	-7.3974	0.8707	0.0000	83.7692	-10.4933	-1.6759	107.2039	7.2924	-3.9281	-0.0000	-12.9409	-1.0038	0.1996	68.2909	7.7325	13.7262	6.5186	55.2252	-23.5535	-8.0857	75.2837	0.9714	14.7861	5.8396	62.0129	-30.2962	-15.7192	
0.0670	-22.2251	-0.2474	-86.0678	0.0000	1.2500	-0.0000	52.7433	1.4479	-4.8644	44.1321	-7.8107	0.7479	-0.0000	86.0104	-10.1753	-2.2361	107.5958	8.2812	-5.3104	-0.0000	-13.0782	-1.0905	0.0492	68.2900	7.7158	13.4705	6.4456	55.2101	-23.4054	-8.0086	75.3781	0.8037	15.0696	5.8080	61.7651	-30.3721	-15.7241	
0.0830	-22.1009	-0.0271	-85.7690	0.0000	1.2500	-0.0000	51.1375	1.3307	-5.2097	44.9555	-7.5436	0.5779	0.0000	88.1477	-9.7269	-2.9497	107.1084	9.2183	-6.5613	-0.0000	-13.1967	-1.1567	-0.0886	68.3150	7.7595	13.1740	6.3996	55.2368	-23.2949	-7.9372	75.4502	0.5615	15.1955	5.7342	61.6335	-30.4354	-15.7368	
0.1000	-22.0426	0.2022	-85.6092	0.0000	1.2500	-0.0000	50.2826	1.1673	-5.5438	46.8057	-6.8886	0.4325	-0.0000	89.5363	-9.3239	-3.2692	105.5857	9.7582	-7.3172	-0.0000	-13.3041	-1.2346	-0.2001	68.4020	7.8487	13.0533	6.3733	55.1664	-23.2078	-7.8810	75.5469	0.3628	15.2257	5.6930	61.5768	-30.4848	-15.7558	
0.1170	-22.0707	0.5448	-85.6406	0.0000	1.2500	-0.0000	50.2963	0.8850	-5.9561	49.7838	-5.7610	0.2693	0.0000	89.9714	-9.0087	-2.7183	102.8543	9.7120	-7.2961	-0.0000	-13.4076	-1.3774	-0.2758	68.5798	8.0030	13.2806	6.3808	54.8599	-23.1418	-7.8446	75.7163	0.2186	15.1365	5.7445	61.6233	-30.5259	-15.7821	
0.1330	-22.1664	0.8973	-85.8097	0.0000	1.2500	-0.0000	51.0608	0.5460	-6.3404	53.7834	-4.2265	0.1330	0.0000	89.6542	-8.7104	-1.7457	99.0748	9.2739	-6.7616	0.0000	-13.4993	-1.5326	-0.3262	68.8180	8.2023	13.6838	6.4068	54.4566	-23.0995	-7.8235	75.9095	0.1179	14.9514	5.8281	61.7442	-30.5530	-15.8145	
0.1500	-22.2433	1.0452	-85.9939	0.0000	1.2500	-0.0000	52.3956	0.2627	-6.3201	58.4605	-2.8205	0.2205	0.0000	88.5542	-8.4144	-1.1766	94.5691	8.6575	-6.1274	0.0000	-13.5648	-1.5745	-0.3663	69.0660	8.3719	13.9618	6.4018	54.2333	-23.0742	-7.8134	76.0287	0.1453	14.8024	5.8385	61.8116	-30.5474	-15.8483	
0.1670	-22.2707	0.8704	-86.1417	0.0000	1.2500	-0.0000	54.3424	0.0863	-5.6256	63.9241	-1.7482	0.6380	-0.0000	86.5646	-8.0833	-1.3536	89.2652	7.9114	-5.4546	-0.0000	-13.6015	-1.4323	-0.4012	69.3384	8.4879	13.9755	6.3342	54.3255	-23.0565	-7.8163	76.0713	0.3781	14.7229	5.7024	61.7959	-30.4954	-15.8864	
0.1830	-22.2771	0.4911	-86.3050	0.0000	1.2500	-0.0000	56.8659	0.0048	-4.5415	70.0558	-0.8304	1.2858	0.0000	83.8022	-7.7379	-1.9252	83.2536	6.9840	-4.6540	-0.0000	-13.6133	-1.1769	-0.4243	69.6221	8.5748	13.8635	6.2364	54.5975	-23.0559	-7.8306	76.0419	0.7391	14.6794	5.4906	61.7248	-30.4107	-15.9257	
0.2000	-22.2639	0.0478	-86.5164	0.0000	1.2500	-0.0000	59.6658	0.0203	-3.5312	76.1901	-0.0467	2.0448	0.0000	80.5808	-7.4389	-2.6828	77.0927	5.9235	-3.9109	-0.0000	-13.5960	-0.8958	-0.4322	69.8266	8.6308	13.7404	6.1552	54.9190	-23.0937	-7.8463	75.8529	1.0816	14.7034	5.3130	61.5578	-30.3152	-15.9517	
0.2170	-22.2143	-0.4514	-86.7647	0.0000	1.2500	-0.0000	62.7153	0.1207	-2.6826	82.3264	0.3968	3.1848	0.0000	76.8267	-7.1849	-3.7547	70.6809	4.6694	-3.2383	-0.0000	-13.5363	-0.5850	-0.4297	69.8729	8.6474	13.6926	6.0915	55.2239	-23.1780	-7.8605	75.3939	1.3699	14.9337	5.1927	61.1491	-30.2121	-15.9556	
0.2330	-22.1433	-1.0140	-87.0603	0.0000	1.2500	-0.0000	66.0392	0.3081	-1.9335	88.4771	0.6953	4.4731	-0.0000	72.6194	-6.9257	-5.0307	64.0970	3.2804	-2.6234	0.0000	-13.4487	-0.2476	-0.4135	69.8402	8.6320	13.6343	6.0420	55.5770	-23.3006	-7.8760	74.7746	1.6429	15.2342	5.1016	60.6461	-30.0982	-15.9463	
0.2500	-22.1003	-1.5239	-87.4689	0.0000	1.2500	-0.0000	69.4079	0.5660	-1.5130	93.9938	1.5015	4.9806	0.0000	68.4919	-6.7012	-5.9601	58.1809	1.9752	-2.2270	0.0000	-13.3698	0.0183	-0.3657	69.8750	8.6067	13.4221	6.0457	56.0449	-23.4585	-7.8907	74.2353	1.8636	15.2236	5.0821	60.4494	-29.9871	-15.9356	
